/* XPM */
static char *images1680482477[] = {
/* columns rows colors chars-per-pixel */
"67 67 203 2 ",
"   c #030401",
".  c #0B0400",
"X  c #130700",
"o  c #160A01",
"O  c #1C1200",
"+  c #261801",
"@  c #331B01",
"#  c #2E2002",
"$  c #362502",
"%  c #4D3303",
"&  c #4A340C",
"*  c #583B03",
"=  c #584409",
"-  c #504111",
";  c #664D08",
":  c #67520C",
">  c #6C5A0C",
",  c #775607",
"<  c #745B06",
"1  c #745B0A",
"2  c #795A0C",
"3  c #684D18",
"4  c #6B5516",
"5  c #765713",
"6  c #745A14",
"7  c #785C18",
"8  c #7B6108",
"9  c #7B6313",
"0  c #786619",
"q  c #7C621D",
"w  c #7D6422",
"e  c #7D6826",
"r  c #7D6729",
"t  c #7E712C",
"y  c #796733",
"u  c #845C01",
"i  c #8A5E06",
"p  c #826305",
"a  c #8C6300",
"s  c #8C6C05",
"d  c #83640C",
"f  c #8C6609",
"g  c #856B0E",
"h  c #8B6C0B",
"j  c #976405",
"k  c #936A02",
"l  c #936D0A",
"z  c #947207",
"x  c #9A7707",
"c  c #95740C",
"v  c #9C740B",
"b  c #9C7B0C",
"n  c #826513",
"m  c #876B15",
"M  c #8B6B10",
"N  c #81631F",
"B  c #826818",
"V  c #957315",
"C  c #9B7B1B",
"Z  c #A27606",
"A  c #A37E0B",
"S  c #A1791B",
"D  c #856826",
"F  c #836B2B",
"G  c #8E742B",
"H  c #947E22",
"J  c #846C33",
"K  c #867237",
"L  c #8C7337",
"P  c #84723B",
"I  c #8D7943",
"U  c #8E7B4A",
"Y  c #937C49",
"T  c #AA8206",
"R  c #A4820C",
"E  c #AA830A",
"W  c #AE8A0B",
"Q  c #B2890C",
"!  c #B7920F",
"~  c #BA920C",
"^  c #A58419",
"/  c #AB8618",
"(  c #B88F17",
")  c #BC9312",
"_  c #BA9716",
"`  c #9D8125",
"'  c #A68C20",
"]  c #BA9B24",
"[  c #B29331",
"{  c #C59C0B",
"}  c #C89B0D",
"|  c #D19F0D",
" . c #C59B12",
".. c #C79F1A",
"X. c #C8A10E",
"o. c #D4A60E",
"O. c #DCAC0D",
"+. c #CEB20F",
"@. c #DDB50F",
"#. c #C5A114",
"$. c #CAA212",
"%. c #C9A51B",
"&. c #D2A614",
"*. c #D5AA15",
"=. c #DBAD12",
"-. c #D6AA19",
";. c #DDAB1B",
":. c #DDB716",
">. c #E4B40B",
",. c #E5B90C",
"<. c #EBBB0E",
"1. c #FEBF0C",
"2. c #E2AF16",
"3. c #E2AF1B",
"4. c #E3B415",
"5. c #E3B914",
"6. c #EBBB14",
"7. c #E5B618",
"8. c #E9BA19",
"9. c #F1BD12",
"0. c #CFA927",
"q. c #C6A429",
"w. c #D5AD20",
"e. c #D6B32E",
"r. c #E4BD31",
"t. c #EDC20C",
"y. c #F6C503",
"u. c #FEC502",
"i. c #F6C903",
"p. c #FBC802",
"a. c #F4C30C",
"s. c #FCC40B",
"d. c #FAC809",
"f. c #EBC01A",
"g. c #F4C312",
"h. c #F5C617",
"j. c #FBC412",
"k. c #95824A",
"l. c #8D8152",
"z. c #968354",
"x. c #9B8B5D",
"c. c #9D905D",
"v. c #A18D5E",
"b. c #A4915D",
"n. c #A8965F",
"m. c #ACA259",
"M. c #B4AC5B",
"N. c #A28E64",
"B. c #A49265",
"V. c #A3956A",
"C. c #AB966D",
"Z. c #A49575",
"A. c #AD9B72",
"S. c #B29E75",
"D. c #B29F7A",
"F. c #AFA279",
"G. c #B4A27C",
"H. c #C6AE5D",
"J. c #C6B95F",
"K. c #C6AD60",
"L. c #C8B967",
"P. c #B6A987",
"I. c #B9AA86",
"U. c #BDB48E",
"Y. c #BDAE92",
"T. c #BFB392",
"R. c #C0B087",
"E. c #C5B696",
"W. c #C5B99C",
"Q. c #C9BB9E",
"!. c #C4BFA6",
"~. c #CABCA3",
"^. c #CBC5AB",
"/. c #D3C7A7",
"(. c #D3C4AA",
"). c #D4CBAC",
"_. c #D5CBB3",
"`. c #DBCFB4",
"'. c #DED1B5",
"]. c #DCD4BC",
"[. c #E0D5B9",
"{. c #DDD6C4",
"}. c #E4DBC6",
"|. c #E5DCCA",
" X c #EADDD2",
".X c #EAE3CF",
"XX c #E5E0D2",
"oX c #E9E2D3",
"OX c #ECE5D8",
"+X c #EFEADC",
"@X c #F3EDDC",
"#X c #F5F1D7",
"$X c gray90",
"%X c #EBEBEB",
"&X c #F3ECE2",
"*X c #F6F1E4",
"=X c #F9F3E5",
"-X c #FBF6EC",
";X c #FCF8ED",
":X c #F5F5F5",
">X c #FBF6F2",
",X c #FDFCF5",
"<X c #FFFFFE",
/* pixels */
"<X<X<X<X<X<X<X<X<X<X<X<X<X<X<X<X<X<X<X<X<X<X<X<X<X<X<X<X<X<X<X<X<X<X<X<X<X<X<X<X<X<X<X<X<X<X<X<X<X,X<X<X<X<X<X:X<X<X,X<X<X,X<X<X<X<X,X",
"<X<X<X<X<X<X<X<X<X<X<X<X<X<X<X<X<X<X<X<X<X<X<X<X<X<X<X<X<X<X<X<X<X<X<X<X<X<X<X<X<X<X<X<X<X<X<X<X<X,X<X,X<X:X<X<X<X<X<X<X<X,X,X<X<X<X<X",
"<X<X<X<X<X<X<X<X<X<X<X<X<X<X<X<X<X<X<X<X<X<X<X<X<X<X<X<X<X<X<X<X<X<X<X<X<X<X<X<X<X<X<X<X<X<X<X<X<X<X,X,X,X<X,X,X<X<X<X<X<X<X<X<X<X<X,X",
"<X<X<X<X<X<X<X<X<X<X<X<X<X<X<X<X<X<X<X<X<X<X<X<X<X<X<X<X<X<X<X<X<X<X<X<X<X<X<X<X<X<X<X<X<X<X<X<X XY.C.B.P.T.).#X:X<X<X<X<X<X<X<X<X<X<X",
"<X<X<X<X<X<X<X<X<X<X<X<X<X<X<X<X<X<X<X<X<X<X<X<X<X<X<X<X<X<X<X<X<X<X<X<X<X<X<X<X<X<X<X<X<X<X<XXXy : 8 m 7 > 0 t x.^.,X,X<X<X<X<X<X<X<X",
"<X<X<X<X<X<X<X<X<X<X<X<X<X<X<X<X<X<X<X<X<X<X<X<X<X<X<X<X<X<X<X<X<X<X<X<X<X<X<X<X<X<X<X<X<X<X,X^.= > : = = : 6 V C 4 .X,X<X,X<X<X<X<X<X",
"<X<X<X<X<X<X<X<X<X<X<X<X<X<X<X<X<X<X<X<X<X<X<X<X<X<X<X<X<X<X<X<X<X<X<X<X<X<X<X<X<X<X<X<X<X<X<X!.3 K.L.M.M.m.k.V _ g !.;X<X,X,X<X<X<X<X",
"<X<X<X<X<X<X<X<X<X<X<X<X<X<X<X<X<X<X<X<X<X<X<X<X<X<X<X<X<X<X<X<X<X<X<X<X<X<X<X<X<X<X<X<X<X<X<X^.3 M.L.J.L.L.H./ w.8 !.,X<X<X<X<X<X<X<X",
"<X<X<X<X<X<X<X<X<X<X<X<X<X<X<X<X<X<X<X<X<X<X<X<X<X<X<X<X<X<X<X<X<X<X<X<X<X<X<X<X<X<X<X<X<X<X,X^.= H ` ` ' [ ^ e./ w #X>X<X<X<X<X<X<X<X",
"<X<X<X<X<X<X<X<X<X<X<X<X<X<X<X<X<X<X<X<X<X<X<X<X<X<X<X<X<X<X<X<X<X<X<X<X<X<X<X<X<X<X<X<X<X<X<X|.P C r.3.-.-.q.g K '.,X<X<X<X<X<X<X<X<X",
"<X<X<X<X<X<X<X<X<X<X<X<X<X<X<X<X<X<X<X<X<X<X<X<X<X<X<X<X<X<X<X<X<X<X<X<X<X<X<X<X<X<X<X<X<X<X<X,XQ.h 9.s.1.=.d V..X,X<X<X<X<X<X<X<X<X<X",
"<X<X<X<X<X<X<X<X<X<X<X<X<X<X<X<X<X<X<X<X<X<X<X<X<X<X<X<X<X<X<X<X<X<X<X<X<X<X,X<X<X<X<X<X<X<X<X<X/.h <.u.s.A Y =X,X<X<X<X<X<X<X<X<X<X<X",
"<X<X<X<X<X<X<X<X<X<X<X<X<X<X<X<X<X<X<X<X<X<X<X<X<X<X<X<X<X<X<X<X<X<X<X<X<X<X<X,X<X<X<X<X<X<X<X,XP.c h.y.j.Z G.<X<X<X<X<X<X<X<X<X<X<X<X",
"<X<X<X<X<X<X<X<X<X<X<X<X<X<X<X<X<X<X<X<X<X<X<X<X<X<X<X<X<X<X<X<X<X<X<X<X<X<X<X<X<X<X<X<X<X<X<X>Xc.W j.u.s.T b.,X<X<X<X<X<X<X<X<X<X<X<X",
"<X<X<X<X<X<X<X<X<X<X<X<X<X<X<X<X<X<X<X<X<X<X<X<X<X<X<X<X<X<X<X<X<X<X<X<X<X<X<X<X<X<X<X<X<X<X<X+Xe X.s.u.p.{ r *X:X<X<X<X<X<X<X<X<X<X<X",
"<X<X<X<X<X<X<X<X<X<X<X<X<X<X<X<X<X<X<X<X<X<X<X<X<X<X<X<X<X<X<X<X<X<X<X<X<X<X<X<X,X<X<X,X,X,X*XA.p 9.u.u.u.6.8 W.,X<X<X<X<X<X<X<X<X<X<X",
"<X<X<X<X<X<X<X<X<X<X<X<X<X<X<X<X<X<X<X<X<X<X<X<X<X<X<X<X<X<X<X<X<X<X<X<X<X<X<X,X,X<X<X,X<X,XA.d &.u.p.u.u.s.) t  X<X<X<X<X<X<X<X<X<X<X",
"<X<X<X<X<X<X<X<X<X<X<X<X<X<X<X<X<X<X<X<X<X<X<X<X<X<X<X<X<X<X<X<X<X<X<X<X<X<X<X<X<X<X<X<X<X|.q #.j.u.s.u.u.s.g.s N.>X<X<X<X<X<X<X<X<X<X",
"<X<X<X<X<X<X<X<X<X<X<X<X<X<X<X<X<X<X<X<X<X<X<X<X<X<X<X<X<X<X<X<X<X<X<X<X<X<X<X<X<X<X<X<X>XY.s t.u.u.u.p.u.u.i.+.9 /.,X<X<X<X<X<X<X<X<X",
"<X<X<X<X<X<X<X<X<X<X<X<X<X<X<X<X<X<X<X<X<X<X<X<X<X<X<X<X<X<X<X<X<X<X<X<X<X<X<X<X<X<X,X<X>XN.W i.u.u.u.p.u.u.y.h.E Y ;X<X<X<X<X<X,X<X<X",
"<X<X<X<X<X<X<X<X<X<X<X<X<X<X<X<X<X<X<X<X<X<X<X<X<X<X<X<X<X<X<X<X<X<X<X<X<X<X<X<X<X<X,X<X@XJ $.s.u.u.u.u.u.u.y.s.3., |.,X<X<X<X<X<X<X<X",
"<X<X<X<X<X<X<X<X<X<X<X<X<X<X<X<X<X<X<X<X<X<X<X<X<X<X<X<X<X<X<X<X<X<X<X<X<X<X<X<X<X<X<X<X[., 8.s.u.u.u.u.u.u.u.p.6.z P.<X,X<X<X<X,X<X<X",
"<X<X<X<X<X<X<X<X<X<X<X<X<X<X<X<X<X<X<X<X<X<X<X<X<X<X<X<X<X<X<X<X<X<X<X<X<X<X<X,X,X<X<X:XC.x g.u.u.u.u.u.u.u.u.u.s.Q z.-X<X<X<X<X,X<X<X",
"<X<X<X<X<X<X<X<X<X<X<X<X<X<X<X<X<X<X<X<X<X<X<X<X<X<X<X<X<X<X<X<X<X<X<X<X<X<X<X<X<X<X<X&XL  .p.s.p.u.u.u.u.u.u.u.u.$.K +X,X<X:X<X<X<X<X",
"<X<X<X<X<X<X<X<X<X<X<X<X<X<X<X<X<X<X<X<X<X<X<X<X<X<X<X<X<X<X<X<X<X<X<X<X<X<X<X<X<X,X<X~.d 6.u.u.u.u.u.u.u.1.s.u.u.:.D .X<X<X<X<X,X<X<X",
"<X<X<X<X<X<X<X<X<X<X<X<X<X<X<X<X<X<X<X<X<X<X<X<X<X<X<X<X<X<X<X<X<X<X<X<X<X<X<X<X<X,X-XI E s.u.u.u.u.u.u.u.u.s.u.u.4.w .X<X<X<X<X<X<X<X",
"<X<X<X<X<X<X<X<X<X<X<X<X<X<X<X<X<X<X<X<X<X<X<X<X<X<X<X<X<X<X<X<X<X<X<X<X<X<X<X<X<X,X`.9 =.p.u.u.u.u.u.u.u.u.p.s.u.8.N |.<X<X<X,X<X<X<X",
"<X<X<X<X<X<X<X<X<X<X<X<X<X<X<X<X<X<X<X<X<X<X<X<X<X<X<X<X<X<X<X<X<X<X<X<X<X<X<X,X<X-Xz.T a.y.p.u.u.u.p.u.u.u.u.u.u.7.q  X<X<X<X<X<X<X<X",
"<X<X<X<X<X<X<X<X<X<X<X<X<X<X<X<X<X<X<X<X<X<X<X<X<X<X<X<X<X<X<X<X<X<X<X<X<X<X<X,X,X_.7 0.%.,.u.u.u.u.p.u.u.u.u.u.u.4.w XX<X<X<X<X<X<X<X",
"<X<X<X<X<X<X<X<X<X<X<X<X<X<X<X<X<X<X<X<X<X<X<X<X<X<X<X<X<X<X<X,X<X<X<X<X<X<X<X<X*Xz.S B # l u.u.u.u.u.s.u.u.u.u.s.-.F OX<X,X<X<X<X<X<X",
"<X<X<X<X<X<X<X<X<X<X<X<X<X<X<X<X<X<X<X<X<X<X<X<X<X<X<X<X<X<X<X<X<X<X<X<X<X<X<X,XU.9 H o . , 1.y.u.s.u.u.u.u.u.u.u.} L &X<X<X<X<X,X<X<X",
"<X<X<X<X<X<X<X<X<X<X<X<X<X<X<X<X<X<X<X<X<X<X<X<X<X<X<X<X<X<X<X<X<X<X<X<X,X<X,XXXr ' -   . V s.u.u.u.1.u.p.p.y.u.s.~ U -X<X,X<X<X<X<X<X",
"<X<X<X<X<X<X<X<X<X<X<X<X<X<X<X<X<X<X<X<X<X<X<X<X<X<X<X<X<X<X<X<X<X<X:X<X<X<X*XV.v 0.+   # -.u.p.u.u.u.s.-.q.9.s.u.A B.;X<X<X<X<X,X<X<X",
"<X<X<X<X<X<X<X<X<X<X<X<X<X<X<X<X<X<X<X<X<X<X<X<X<X<X<X<X<X<X<X<X<X,X<X<X<X,XQ.1 ;.;.@ O b j.s.u.u.p.a...$ @ O.1.a.s E.,X,X<X<X<X<X<X<X",
"<X<X<X<X<X<X<X<X<X<X<X<X<X<X<X<X<X<X<X<X<X<X<X<X<X<X<X<X<X<X<X<X,X,X<X<X<X{.D ) a.1.) _ 9.u.u.p.p.d.4.%   + | s.5.< }.<X<X<X<X<X<X<X<X",
"<X<X<X<X<X<X<X<X<X<X<X<X<X<X<X<X<X<X<X<X<X<X<X<X<X<X<X<X<X<X<X<X<X,X,X<X@XU Z a.i.u.j.s.s.s.u.u.s.s.( o   $ >.s.-.4 =X,X:X<X<X<X<X<X<X",
"<X<X<X<X<X<X<X<X<X<X<X<X<X<X<X<X<X<X<X<X<X<X<X<X<X<X<X<X<X<X<X<X<X<X<X=Xn.s 5.u.y.u.u.y.s.i.u.u.u.s.h . X M j.1.W U :X<X<X<X<X<X<X<X<X",
"<X<X<X<X<X<X<X<X<X<X<X<X<X<X<X<X<X<X<X<X<X<X<X<X<X<X<X<X<X<X<X<X<X<X>XI.p =.a.u.u.1.1.o.y.s.u.u.u.s.V O ; 4.1.9.z P.<X,X,X<X<X<X<X<X<X",
"<X<X<X<X<X<X<X<X<X<X<X<X<X<X<X<X<X<X<X<X<X<X<X<X<X,X<X<X<X<X<X<X,X,XQ.N  .d.u.y.u.1.} ; @.d.s.p.u.u.4.! 4.j.j.2.B ].<X<X<X<X<X<X<X<X<X",
"<X<X<X<X<X<X<X<X<X<X<X<X<X<X<X<X<X<X<X<X<X<X<X<X<X<X<X<X<X:X<X<X<X(.q ! h.u.u.u.1.u.{ & e.s.4. .u.u.u.u.u.u.s. .K =X<X<X<X<X<X<X<X<X<X",
"<X<X<X<X<X<X<X<X<X<X<X<X<X<X<X<X<X<X<X<X<X,X,X<X<X<X<X<X,X,X:X<X).q ! g.u.u.u.u.u.i.5.% , ^ * , 9.u.u.u.y.p.a.s P.<X<X<X<X<X<X<X<X<X<X",
"<X<X<X<X<X<X<X<X<X<X<X<X<X<X<X<X<X<X<X<X<X<X<X<X<X<X<X<X,X<X,X_.F W <.u.u.u.u.u.y.s.s. .; * i -.p.s.u.u.u.p.@.7 }.<X<X<X<X<X<X<X<X<X<X",
"<X<X<X<X<X<X<X<X<X<X<X<X<X<X<X<X<X<X<X<X<X<X<X<X<X<X<X<X<X,X~.7 W a.u.u.u.s.u.u.s.s.u.s.a.a.d.s.u.p.u.u.u.d.R x.-X<X<X<X<X<X<X<X<X<X<X",
"<X<X<X<X<X<X<X<X<X<X<X<X<X<X<X<X<X<X<X<X<X<X<X,X,X,X<X<X@XD.2  .9.u.u.u.u.s.u.u.y.u.u.u.s.p.u.1.u.u.1.u.u.:., ].,X<X<X<X<X<X<X<X<X<X<X",
"<X<X<X<X<X<X<X<X<X<X<X<X<X<X<X<X<X<X<X,X,X,X<X<X<X,X>X].U g $.s.u.u.u.u.p.u.u.u.u.u.u.u.u.u.u.u.u.u.u.u.9.T U >X<X<X<X<X<X<X<X<X<X<X<X",
"<X<X<X<X<X<X<X<X<X<X<X<X<X<X<X<X<X<X<X<X,X,X,X<X<X XS.5 R :.s.u.u.u.u.s.u.u.u.u.u.u.s.u.u.s.u.u.u.u.y.s.&.9 _.<X<X<X<X<X<X<X<X<X<X<X<X",
"<X<X<X<X<X<X<X<X<X<X<X<X<X<X<X<X<X<X<X<X<X,X-X].C.N z *.g.y.u.u.u.u.u.s.u.u.p.u.u.p.i.u.u.u.p.u.u.u.u.f.f A.:X<X<X,X<X<X<X<X<X<X<X<X<X",
"<X<X<X<X<X<X<X<X<X<X<X<X<X<X<X<X<X<X<X,X+XW.l.0 z } 9.s.p.p.u.u.u.u.p.u.u.u.u.s.u.u.u.u.u.y.u.u.u.u.a.W L OX,X,X<X<X<X<X<X<X<X<X<X<X<X",
"<X<X<X<X<X<X<X,X:X<X<X,X<X<X:X<X<X>X[.C.N i Q =.9.p.u.u.u.u.u.u.u.u.u.u.u.u.y.u.u.1.u.u.u.u.u.u.u.j.{ 1 '.<X<X<X<X<X<X<X<X<X<X<X<X<X<X",
"<X<X<X<X<X<X<X<X<X<X,XOX|.@XoX).G.K 9 b %.8.j.p.u.u.u.u.u.u.u.u.u.u.u.u.u.u.u.u.u.s.u.u.y.u.u.u.s.&.d U.,X<X<X,X<X<X<X<X<X<X<X<X<X<X<X",
"<X<X<X<X<X,X<X<X<X<X].P e G D n z ~ @.<.d.i.y.u.u.u.u.u.u.u.u.u.u.u.u.u.u.u.u.u.u.u.u.u.u.u.s.s.:.d C.>X<X<X<X,X,X,X<X<X<X<X<X<X<X<X<X",
"<X,X<X<X<X>X<X<X<X&XI > ] $.o.6.g.u.u.u.u.u.u.p.1.u.u.u.u.u.u.u.u.u.u.u.u.u.u.u.u.u.u.u.u.s.s.5.p b.&X<X:X<X<X<X<X<X<X<X<X<X<X<X<X<X<X",
"<X<X<X<X<X<X<X<X=Xx.1 u v g.p.p.1.u.1.u.u.u.u.u.u.u.u.u.u.u.u.u.u.u.u.u.u.u.u.u.u.y.u.u.s.a.*.d c.*X<X<X,X<X<X<X<X<X<X<X<X<X<X<X<X<X<X",
"<X,X<X<X<X<X<X>XU.> l k j 9.u.u.u.1.u.u.u.u.u.u.u.u.u.u.u.u.u.u.u.u.u.u.u.u.u.u.u.u.u.u.d.&.d n.@X<X<X:X,X<X<X<X<X<X<X<X<X<X<X<X<X<X<X",
"<X<X<X,X<X<X<X>Xl.g z j j <.u.u.u.u.p.p.u.u.u.u.u.u.u.u.u.u.u.u.u.u.u.u.u.u.u.u.u.p.u.a. ., F.&X,X<X<X<X<X<X<X<X<X<X<X<X<X<X<X<X<X<X<X",
"<X<X<X<X,X,X<X>Xz.d k j i ,.u.u.u.p.u.s.p.u.u.u.u.u.u.u.u.u.u.u.u.u.u.u.u.u.u.p.u.j.8.b q W.>X<X<X,X<X<X<X<X,X<X<X<X<X<X<X<X<X<X<X<X<X",
"<X<X<X<X<X,X<X<X!.5 f k u >.u.s.u.u.u.u.u.u.u.u.u.u.u.u.u.u.u.u.u.u.u.u.u.u.u.u.j.&.l I _.>X,X<X<X<X,X<X<X<X<X<X<X<X<X<X<X<X<X<X<X<X<X",
"<X<X<X<X<X,X,X<X;XC.5 , a <.p.u.u.u.u.u.u.u.u.u.s.p.u.u.u.u.u.p.u.p.u.u.u.u.d.6.T 2 C.@X,X,X<X<X<X<X<X<X<X<X<X<X,X<X<X<X<X<X<X<X<X<X<X",
"<X<X<X<X<X<X<X<X<X;XZ.: ( h.s.u.u.u.u.u.u.u.p.u.u.u.u.u.u.u.u.u.u.p.u.s.j.8.! < k._.:X<X<X,X<X<X<X<X<X<X<X<X<X<X<X<X<X<X<X<X<X<X<X<X<X",
"<X<X<X<X<X<X<X<X<X<X*XP.q W 4.d.u.u.u.u.u.u.u.u.u.u.u.u.y.u.u.1.p.p.a.7.! M J E.&X,X<X<X<X<X<X<X<X<X<X<X<X<X<X<X<X<X<X<X<X<X<X<X<X<X<X",
"<X<X<X<X<X<X<X<X<X,X,X,X^.J p ~ 6.j.j.u.u.u.u.u.u.u.u.u.p.s.s.s.g.=.b 8 y R.&X<X<X<X<X:X<X<X<X<X<X<X<X<X<X<X<X<X<X<X<X<X<X<X<X<X<X<X<X",
"<X<X<X<X<X<X<X<X<X<X,X<X<X=XW.I 2 v %.>.g.j.s.s.s.u.s.s.<.=...A 2 w v.).;X,X,X,X,X,X<X<X<X<X<X<X<X<X<X<X<X<X<X<X<X<X<X<X<X<X<X<X<X<X<X",
"<X<X<X<X<X<X<X<X<X<X<X<X,X<X<X&X/.b.F m f l b E T R x h h B F N.Q.oX:X,X,X<X<X<X<X,X<X<X<X<X,X,X<X<X<X<X<X,X:X<X<X<X<X<X<X<X<X<X<X<X<X",
"<X<X<X<X<X<X<X<X<X<X<X<X<X:X<X<X<X,X#X].Q.P.A.N.B.V.F.T./.}.-X,X,X<X<X<X<X<X<X<X<X<X<X<X<X<X<X<X<X<X:X%X%X%X%X$X%X%X$X%X%X:X$X$X$X<X<X",
"<X<X<X<X<X<X<X<X<X<X<X<X,X<X<X:X<X<X<X<X<X:X<X,X,X,X,X<X<X<X<X<X<X<X<X<X<X<X<X<X<X,X<X<X<X<X<X<X<X,X:X%X%X%X%X%X%X%X%X$X%X:X$X%X:X<X<X",
"<X<X<X<X<X<X<X<X<X<X<X<X,X<X,X<X<X<X<X<X<X<X<X<X<X<X,X<X<X<X<X:X,X,X<X<X<X:X<X<X<X<X,X<X<X<X<X<X<X<X<X<X<X<X<X<X<X:X<X<X:X<X<X<X<X<X<X",
"<X<X<X<X<X<X<X<X<X<X<X<X<X<X<X<X:X<X<X<X<X<X<X<X<X<X<X<X<X:X<X<X<X<X<X<X,X<X,X<X<X<X<X<X<X<X<X<X<X<X<X<X<X<X<X<X<X<X<X<X<X<X<X<X<X<X<X"
};
