/* XPM */
static char *ddsdvv1679750603[] = {
/* columns rows colors chars-per-pixel */
"64 64 256 2 ",
"   c #1B1D15",
".  c #181C14",
"X  c #161C0B",
"o  c #1B260B",
"O  c #1C2316",
"+  c #1E2319",
"@  c #1D2915",
"#  c #1C3511",
"$  c #2A380D",
"%  c #232C14",
"&  c #21241B",
"*  c #242B1C",
"=  c #282C19",
"-  c #25341B",
";  c #2B341C",
":  c #2C3C1C",
">  c #263816",
",  c #333B1E",
"<  c #323B16",
"1  c #2D370F",
"2  c #252C21",
"3  c #292D22",
"4  c #2B3423",
"5  c #2D3B23",
"6  c #2A3525",
"7  c #323C24",
"8  c #333D2A",
"9  c #353927",
"0  c #353B30",
"q  c #2D431C",
"w  c #29471A",
"e  c #34431C",
"r  c #36481A",
"t  c #365719",
"y  c #2F510F",
"u  c #3B6618",
"i  c #38650C",
"p  c #2D4223",
"a  c #2D4428",
"s  c #344324",
"d  c #3B4324",
"f  c #344B24",
"g  c #3B4C24",
"h  c #34442B",
"j  c #3B442C",
"k  c #3C4B2B",
"l  c #33492C",
"z  c #345424",
"x  c #3C5424",
"c  c #3C542B",
"v  c #3C5A2C",
"b  c #375A26",
"n  c #3A4933",
"m  c #3C5634",
"M  c #2F5822",
"N  c #3B6627",
"B  c #3D6234",
"V  c #44591D",
"C  c #444D1D",
"Z  c #497018",
"A  c #434D23",
"S  c #444C2C",
"D  c #43482A",
"F  c #425324",
"G  c #4A5B25",
"H  c #43542B",
"J  c #4A552C",
"K  c #435B2C",
"L  c #4C5C2C",
"P  c #445A25",
"I  c #434C33",
"U  c #454936",
"Y  c #435233",
"T  c #4B5532",
"R  c #455C33",
"E  c #4B543C",
"W  c #485A38",
"Q  c #535B38",
"!  c #515B26",
"~  c #43642B",
"^  c #4C642C",
"/  c #446C2D",
"(  c #476826",
")  c #546829",
"_  c #4B732B",
"`  c #487628",
"'  c #587829",
"]  c #446333",
"[  c #4C6434",
"{  c #4C6B33",
"}  c #4C6A3B",
"|  c #486638",
" . c #536433",
".. c #546B34",
"X. c #53653C",
"o. c #556A3B",
"O. c #5A683A",
"+. c #4C7734",
"@. c #547434",
"#. c #5B7234",
"$. c #537D32",
"%. c #5B7A33",
"&. c #5C733C",
"*. c #577A3A",
"=. c #626D3D",
"-. c #647C3B",
";. c #65783A",
":. c #627B29",
">. c #4A5643",
",. c #535B45",
"<. c #595F52",
"1. c #586945",
"2. c #597745",
"3. c #5D7652",
"4. c #51674A",
"5. c #636B47",
"6. c #637543",
"7. c #6B7D44",
"8. c #667948",
"9. c #727C48",
"0. c #697857",
"q. c #737C55",
"w. c #636A55",
"e. c #6B7562",
"r. c #757C66",
"t. c #635C41",
"y. c #518B1B",
"u. c #688C1B",
"i. c #5A8529",
"p. c #598439",
"a. c #52892D",
"s. c #67882B",
"d. c #6A962B",
"f. c #749729",
"g. c #6D8C3B",
"h. c #678637",
"j. c #738D3A",
"k. c #758D37",
"l. c #6A9436",
"z. c #74933C",
"x. c #799737",
"c. c #758F2A",
"v. c #7AA539",
"b. c #74A132",
"n. c #5C8545",
"m. c #688746",
"M. c #748848",
"N. c #689746",
"B. c #749344",
"V. c #7A944B",
"C. c #7A9847",
"Z. c #6B8654",
"A. c #778858",
"S. c #6D9653",
"D. c #7C9354",
"F. c #7A9758",
"G. c #7AA448",
"H. c #78A355",
"J. c #6DA148",
"K. c #798966",
"L. c #7C9567",
"P. c #708768",
"I. c #839B39",
"U. c #86A73A",
"Y. c #8FB33B",
"T. c #829D44",
"R. c #849D4C",
"E. c #859A49",
"W. c #859958",
"Q. c #8A9355",
"!. c #8DAB43",
"~. c #8BA44B",
"^. c #87A547",
"/. c #93AC49",
"(. c #8CB245",
"). c #9BB44C",
"_. c #98B848",
"`. c #8AA454",
"'. c #8BA758",
"]. c #94AC5B",
"[. c #96AB56",
"{. c #99B557",
"}. c #8BB257",
"|. c #A3BB46",
" X c #A4BB5A",
".X c #838B67",
"XX c #879867",
"oX c #939C6B",
"OX c #8A9A75",
"+X c #939B73",
"@X c #868D74",
"#X c #8BA466",
"$X c #95A867",
"%X c #9BB567",
"&X c #8BA376",
"*X c #97A878",
"=X c #9BB474",
"-X c #A5BA67",
";X c #A4AD74",
":X c #A7B877",
">X c #B2BE76",
",X c #9CC24E",
"<X c #A7C74A",
"1X c #A8C657",
"2X c #B3CB58",
"3X c #B8D458",
"4X c #AFCF56",
"5X c #9DC263",
"6X c #ACC364",
"7X c #AAC468",
"8X c #B4CB69",
"9X c #B9D267",
"0X c #AAC277",
"qX c #B4C979",
"wX c #BBD576",
"eX c #A9D462",
"rX c #C5DB68",
"tX c #C4DA77",
"yX c #CBE277",
"uX c #D2E676",
"iX c #C2DE5C",
"pX c #949D8A",
"aX c #9BA885",
"sX c #99AC8C",
"dX c #A4A883",
"fX c #A9B786",
"gX c #A6AA96",
"hX c #AAB797",
"jX c #B4B998",
"kX c #B3BC8A",
"lX c #B7BBA7",
"zX c #ABB7A8",
"xX c #ACC288",
"cX c #B4C687",
"vX c #B8C697",
"bX c #B5D091",
"nX c #B7C2A7",
"mX c #BDC9B6",
"MX c #C7D987",
"NX c #C6D696",
"BX c #C5CE97",
"VX c #D5E992",
"CX c #E5F398",
"ZX c #C2CAA6",
"AX c #C9D8A8",
"SX c #C7C9B5",
"DX c #CDD5B9",
"FX c #D4DBB2",
"GX c #D7E7B9",
"HX c #D7E6A4",
"JX c #E7F2AB",
"KX c #D6D8C7",
"LX c #C7CDC3",
"PX c #D9E7CB",
"IX c #E4EACD",
"UX c #EAF7E6",
/* pixels */
"].;XKXAX9X7XfXPXUXIXCXuXuXuXuXrXuXMX$XBXMX>X%X~.tXtXwX<XY.4X,X}.qX0X^.g.~.)./.x._.U.U.I.x.].-XW.A.*.m.{ g Q Q T J =. .k w.I ,.,.",
"V.vXhXFX7X-X=XmXPXGXJXuXVXuXVXrXeX:X;XGXBXNX X>XI.tXtX_.<X,XY.,XW.}.-XC.j.)./.Y.!.!.f.I.`.C.%X#XB.@.B.%.F D D Q d Q  .1 : E ,.T ",
"=XAXIXBX=XNXNXxXsXDXHXVXCXtX X).!.0XFXdXcXkX-XE.d.Y.1X4X,XY.U.`.'.].^.~.M.B.s.x.T.T.U.x.7X$X`.'.B.z.C.h.L e Q 5.D Q G J Q Q Q t.",
"PXvXXXXXfXvXW.dXvXPXJX9X|.rXuX8XwX0XxXD.Q.M.I.Q.).u.U.3XY.U.(.0XxX0XU.x.$X;.I.~.%X`./.z.C.=XB.T.k.}.1Xl.V C Q Q T ! ! 5.+XQ , t.",
"DXvX:X%XxXmXjXfXZXAXtX3XrXiXiX|._. X%XHXHXJXCXtX1XY.u.<X_.U.v.:XfX-X!.U.[.' ^.!.7X].x.k.' j.-.s.x.7X{.d.#.J t.O.T G G J ,.D T O.",
"hXbXbX0XcXPXIXjXkXMX|.3XuX3X<X|.|. X XwXMXMXCX X4XuX<Xc.(.(.v.`.cXcX/./.[.x.k.[.k.' C.k.k.C.j.s.`.8X^.x.' G O.T A  .;.! =.t., q.",
"vXxX5X{. XHXbXHXNXyX<X<XiX<X<X2X).>X8X>XVXMX6X1XrXuX2Xf.l.:.i.~.xX=XT.k./.I.' ' j.].}.^.I.`.T.V.%X{.x.^.%. .G ! d =.7.J 9.8.< 0.",
"OX%.].,X<XyX-XqXHXtXY.|.<X|.|./.[.rXtXrXtX2X8XtXuXtX).{.^.g.Z :.cXcX:.k.!.T.) ) R.-X{.%XI.{.g.-.$XW.k.C.%...G J g 7.) J J 5.D E ",
"fXm.h._.eX1XeXbXVX,X,X,Xb.5X5X^.%X1X9X8X-X6X2X2XuXwX4X,X{./.-X:.B.vXs.c.h.-.`.-.A.D.v.U.b._.G.z.T.h...-.y =.Q S J D.) 8., D U , ",
"AXV.Z i.(.5X}.MXeXv.U.1XY.(.{.}.{./.8X8X[. X9XrX8X8X4X1X X^.C.~.) XXj.k.`.0XR.R.&.W.c.U.,X^.5XG.l.B.&.L ! 9.T D T O.#.J , = U , ",
"`.}.i.i.d.,XqX].{._.(.).eX^.C./.^. X!./.6X).8XwX8X2X<X7X{.I.s.[.E.C -.' T.E.k.E.M.7.B.^.^.x.}.C.T.) r ;.;.;.Q D 1.[ O.< , 9 U D ",
"'./.(.b.d.,X%X^.-X,X^.{.8X6X/.%X-X1X X1X X9XtXwX8X9X8XqX[.{.[./.$X:.' :.~.).^.z.m.&.h.D.C.g.C.^.T.:.y =.M.=.t.D e.0.k j = 9 1.J ",
"^.u.d.b.v.,XbXbXqX}.].0XwX1Xx. XMX1X_._.!.yXCXqX7X/.0XbX$X/.W.~.8XQ.h.x.).!.!.E.Q.W.[ D.=X#XF.B.C.h.t O.M.8.U E @X1.; 9 , = 5.1.",
"s.(.d.d.b.(.NXGXcX=XxXwX%X!.x.C.{.x.(.1Xv.9XVXMX-X/.AXK.$ V ;.-. X%X) C.U.~.~.[.=XkX8.A.AX#XV.B.-...h.-.7.O.9 ,.<.j 4 = ,., .XA.",
"G.1XeXv.b.G.5XGXAXNXGXbX8X4XU.[.c.U.I.!.6X{.8X/.I./.+XW $XG V r %X:Xq ].!.`.;X-X:X$XfXq.OX#XB.B.^ #.E.V.8.J 9 0 0 4 ; & 8 I 1.5.",
"B.G.U.i.y.v.H.bXNXHXNX=X(._.!.}.b.U.U.U.~.0Xk.:./.T. .ZXNX$X) : 5.XXY $XE.`.;X:X%XR.cX=X1.&Xm.@.q ) z.;.O.S 9 0 >.5 j 9 9 j 1.1.",
"%X%X^.d.b.d.b.N.7X%XB.g.v.v.x.s.b.v.).6X-Xk.[.rX2XqXGXGX[./.qXK.% T >.jXkX*X*XkXAXoXV.A.P.1.G ^ c  .R.:. .Q 7 j E D ,.U D n e.0.",
"H.H.}.l.v.d.d.i.z.l.h.G.{.x.c.' x.(.T.B.k.E.yX2X|.qXIXZX X!.x..X<.7 E ZXZX;XgXvXDX.XQ.aXmX.XC Q : L.W.#.#.9.S 9 w.e.E ,.w.>.e.gX",
"J.B.G.i.d.y.` ' ` ' z.z.s.B.z.' h.g.h.E.BXVXVX9X|.|.BXMX[.).x.Z.OXj j nXjXdXdXvXBXXXZXfXgXDX.Xs 4.AX;.-.G A.T I U e.t.Q 8.g 0.OX",
"i.' Z s.C.` Z i.G.C.G.s.s.s.' h.' h.[.].MXHXVXuX3X/.2X>X].~.R.=.gX,.9 SXlXjXjXkX>XoXSXgXgXhXr.; gXGXXX7.F =.T = >.E 9 r.XXC 5.q.",
"i.C.g.g.z.i.s.}.5XG.C.G.{.B.' -.%XMX>X~.;XBXMXrX3XY.|./.E. X).! vXw.8 KXjXlXSX>X>XQ.jXjX.XoXU U pXaX:XA.X.H d ; j r.1.w.q.9.o.T ",
"h.g.` i.l.i.v.b.d.u.i.x.^.h.#.XX-X6X9X>XtX;X>XuXiX2X|.|.E.>X-X) =X,.0 DXSXSXFX>X>XQ.+XQ.XXA., >.hXZ.#.[ K L k 7 = >.<.j s [ O.H ",
"N.h.` i.' i.h.d.}.l.s.C.m.' #.D.:X6X9X8X-XkX$XMXiX|.2XU.[.[.[.9.*XQ j fXZXKXKXcX>XoX;.;X;XQ % e.hX6.#.k A L k ; = 9 E + % g A.T ",
"F.m.g.i.i.' a.l.B.h.*.%.' %.@.L.BXcX8X/.-XkX;XrX2X|./.~.~. XQ.9.oX1.9 *XZXKXDXBX;XQ.;XkXaXS = pXW 7.M.f f o., 7 7 7 7 7 f L =.T ",
"$.p.' i.Z ` i.h.' @.m.h.h.h.M.#XAX0X%X[.-XqXBXR.|.rX|. X XI.9.9.:XX.9 Q.dXKXKXFX;X! ;.>Xr.t.U 9 W VXm.q O.Z.g E 5.A d g X.F 6.S ",
"~ @.%.p.` / _ p.$.B.m.h.g.G.A.7.%X$XR.E.U.).qXz.|.iX2X|. X X;.=.vX5.; oX;XZXSXDX.XA ;X;X=.E 0 X OXcX-.o.;.6.W 1.M. .c  .W w O.9 ",
"#XP _ $.N ` ` *.%.h.@.m.g.%X'.m.'.].].~./.{.%X[.<X3X2X2X).Q.k.=.kX5.3 oX;XjXKXSXq.q.FXdXA j & U #X$X$XF. .K g [ D.=.L P ~ K o.; ",
"L.@.{ / / $.p.+.p.*.+.m.B.W.W.M.j.j.[.-X X X[. X3X2X3X_.I.~.Q.=.cX1., kXBXlXSXSX6.1 t.q.D U   E #X=X0X*X-.L > 0.&X6.F F L C 1.% ",
"z z [ / | 2.n.+.*.+.~ Z.V.p.( ' x.k.~.T.7X{.].qX9X2X|.U.).).[.=.kX9.= kXBXlXgX+XC ;X.XD D = 7 +X#X'.'.=XM.q.g X.&XO.r H ^ ^ R : ",
"OXR ~ v ] +.+.} 2.2.{ { { &.8.V.{.E.j.~.[.-X].-X|.2XU.2X X X/.) oXt.= dXjXlXIX+XC ZXoXd D % A.fXW.C.g.$XM.W.o.Z.M.;.r H -.#.x 7 ",
"P.| ] | f z | 2.2.4.B } 8.F.F.M.z.C.`.'.7Xk.[.~.I.).).2X2X X[.) [.t.= jXZXgXSXdX=..X! J % J *XoX#X%XC.g.' D...8.A.;.g Y h.g.F < ",
"| m v | c c c } | B N } *.8.&.) h.V.%.h.`.x.%X7X).I.Y.).rX).[.! '.t.9 lXZXgXSXjX1 J Q.D = .XvXQ.`.s.z.z.' M.D.7.6.^ : I j.z.^ F ",
"| m v m m m l a m m } R c &.m.V %.%.( @.C.T.].-XI.c.U.U.tX X|.! oX .9 gXjXaXKX+Xo A.9., 9 pXkXW.'.g.k.z.' h.Q.M.O.P f Y B.s.-.W.",
"W l l n m l a a l m m R 2.F.@.v L { %.%.g.T./.{.x.u.U.!.8X X{.! ;XO.4 aXjX;XKX5.O.Q.d 9 % .XkXQ.W.T.M.t ) XX$X%.1.L x H #.' g.*X",
"S k n n m l a n a >.m | 8.m.^ P K +.p.-.W.z.x.s.f.I.!.{.[. X[.! dXX.9 aXfXkXSXD 7.oX9 ; D *X*XoX-X-.V ) =.W.$Xj.7.K  .C #.' Z M.",
"E - l m a a a l p m Y v H R [ v  .@.n.h.'.x.c.C.^.E./.Q.>X-X[.! dX1.4 gXdXdXdX, Q.M.< , Q ;X$XoXW.) V.$XB.W.W.h.) T L.7.) z.' g.",
"k 8 h n a l l l a a n 4.8.x K K x ..h.M.D.'.`.'.B.'.V.W.;XqXQ. .oX1.9 gXoXfX.X1 Q.! j S aX$X$XK.Q fX].B.D.D.W.-.G Q *XM.%.'.C.M.",
"U 0.K.a l n >.l a 8 h m } H H x v 2.@.*.D.W.h.7.=.r t r C ! $X=.*X5.j jXoXkXoX< 6. .; 1.A.r $ $ P.sXF.N.#XXXOXm.2.3.XXS.V B.'.*X",
"e.w.w.a l a a a 5 - 5 l g K J x H ^ { M.m.! G q Q L.S.XXq.9.C C A.T j jXQ.oX+X< L T % o r o.&.XXSXsXF.F.F.&XnXF.A.OXOXF.t h.F.pX",
"e.<.m m B >.>.6 O * - k k c g c F ~ m.F. .A.M.m.*XfXF.*Xq.XXoX, J d ,.jXq.A C C Q : o 3.fX*X*X.XzXnXF.=XB.L.pX3.Z.sX&X#Xl.S.F.L.",
"w.<.>.m >.6 m >.& 2 6 - p f f g R ..@.) m..XM.D.E.:X#XK.K.*Xq.Q S < <.ZXq.5.J C D % >.SX*X*X*XXXzXPX=XH.B.F.pX] m.sXL.n.H.H.H.L.",
"6 >.<.m n 0 + l n & 8 5 - k j k q K x #.M.M.A.'.S.'.*X#X.X.X.Xq.g ; 0.hX=.oX9.D U & pXnXOXOX&XL.mXmXxXL.F.F.L.} / =XL.a.l.J.H.H.",
">.m 0 a @ 6 + + >.6 6 6 @ - h h Y f g Z.M.A.W.'.m.F.fX+Xr.pX@Xq.Q 7 r.jX5.oXG Q 9 h sXOXA.L.&XL.zXOXZ.&XvXZ.P.+.t S.S.p.J.J.J.J.",
"l 6 6 2 2 2 + 2 >.6 * 6 6 - - j W R ^ ^ { 9.6.S.F.Z.#X.XlXgXoX.XT 7 pXSXA.;.! J 4 >.@XaX+X8.K.P.P.nXhX&XxXL.S.P.&XL.S.N.N.N.J.l.",
"a 6 6 + @ 2 @ + 6 0 4 n n @ @ - m L ^ ~ ..6.&.&.@.m.#XXXlXlX$XA.c 8 SXKX.XM.5.F ; 0.OX&XF.6.A.w.pXKXsXzXsXn.3.4.3.n.H.S.N.J.a.` ",
"a 6 2 @ 2 + @ . O 4 6 6 0 ; ; - : W ....^ 6.8.h.-.{ &.+XLXSXoX..n Y KXPX+X.XG D 7 q.XXXX7. .2.Z.pXLXzXpXL.sXZ.4.B S.+.n.` a.n.+.",
"a 6 6 + . + 2 + O + + * 4 6 8 8 - k o.} ~ 1.L.#X2.{ F.sXlXDXD.C k r.zXnX&XA.r d j K.L.W.8.[ Z.P.sXzXhXL.L.L.P.>.P.OXn.+.B a.a.+.",
"n 6 + @ . . + + O & 3 2 4 = 6 5 5 > K } ^ 4.n.+.v R Z.vXsXsXM.r , P.hX*XXX8.D S % Y P.K.8.q.P.3.zXsXL.n.3.4.m m n.4.S.B N.J.a.N ",
"6 2 + . . . &       3 3 2 & * 9 8 a a W ~ R } *.8.{ Z.nXhX&X@.r S pXXX&XL.J I 5 w.I p W R >.P.3.P.P.P.L.L.K.1.c R z Z.2.u _ p.+.",
"6 2 + . & & .   & & 9 3 2   = 6 n h $ w R c } 2.o.3.P.L.=XL.K r W OX} *.7.k Y s e.L.R 6.8.| 2.| n.n.N.S.L.XX4.1.| Z.F.m.N y K ] ",
"2 2 + 2 +     &   & 3 3 2 & 3 - : [ R > l H W c x ] 0.2.bXL., C R L.m.m.^ j T k 2.2.&.2.{ ] 2.| N N.S.N { F c 4.2.] { y y t v q ",
"0 3     .     3 9   = & 2 0 = 7 s f 1.k 5 s [ W c R 4.2.xXA.1 r L m.m.2.r Y I : 2.2...Z.*.@.| v N +.n.S.Z.7.] W W v x _ p.{ r # ",
"+ 2 + . + + & 3 0   3 3 & 0 4 ; s s : W 7 s q c R 1.o.1.n.8.1 < ^ C.B.[ e E 7 , | v 2.L.H.H.p.| B +./ 2.S.*.m.2.} B 4.n.p.M w w ",
"0 . . . . +   + % + + + 3 9 % - : 5 s s - : s : s R T H ] @.r C #.$X' f n E > d H ] n.n.n.n./ B | B B b m./ 2.&.x w B 2.N f f w ",
"3.>.+ + O + 2 @ & + 2 3 ; = % % 8 s 8 - : 7 5 s q q f f g F V L ;.`.G < U k 7 : } 2.| N / ` N 4.z v v v { +./ P ^ v b w w M m b ",
"m 3.l m m O 2 @ o   3 8 4 7 @ = h h 6 - % 4 h s q - q f f g V L  .C A j n H j : c 2.} v b M +.2.v m v R Z.{ { @.n.4.w # > # >.l ",
"+.n.p q f @ & o ; 2 & 4 = k 4 = h 2 2 @ @ h ; @ 5 p q : d r r J S s j U j S j Y r v 1.| c 1.4.| v v 2.0.c } m.m.~ z q h % # m a ",
"N N f z 2.5 5 T H + . 2 - k E @ @ 2 @ 6 h 7 8 ; : h l h j < r G : U U ,.j j j k z c Y q f l l ] 4.m 3.R q R } t N B m s s l l 4 ",
"M +.*.p.a.N N u w > j * @ f s - a l 6 - 7 = - a p - 5 l p r A A , j j 7 T k ; s k k k q : 7 ; | 2.P.4.q H o.F &.1.v f ] K m l & ",
"B +.` ` a.p.p.i.@.~ x - 6 > c f a a l a # @ @ o # : - - z r A r A , l h W : $ q s e } ] K c q $ M B f q c > t r w > w r x ] : > ",
"N N N u ` $.u ` a.n.+.M v / ( ] M M z w w w f # : w > # z x q C q > 5 | | K ~ K r b ( @.~ ~ t ~ M y M w t @.B.$.*.+.p.J.p.a.t N ",
"N a.N i u N ` i.a.` p.B N +.` m.N N 2.M B B B b c a w M v r r F r s s z ~ N / / / ` ` _ ( ( *.$.t y N $.i.l.l.s.l.d.d.v.U.v.b.l.",
"u N a.u a.y u y.y.a.a.B +./ J.n.N a.a.B B M N B m z M N } ..H x r < c b t N ~ u t / u N ` ` $.` $._ h.$.i i u u u u i Z Z y.y.a.",
"a.N.p.y.l.` y.y.y.y.y.N N a.+./ N N N M M M M B M b N / ~ P F P v s w t M ` N M N +._ u ` u / a._ $.p.a.N N M w r w y N u N a.y."
};
