/* XPM */
static char *download1679749778[] = {
/* columns rows colors chars-per-pixel */
"64 64 218 2 ",
"   c #050505",
".  c #090504",
"X  c #060906",
"o  c #0A0906",
"O  c #060609",
"+  c #0B070B",
"@  c #060A0A",
"#  c #0B0B0B",
"$  c #100504",
"%  c #120B05",
"&  c #120D0B",
"*  c #1B0D0A",
"=  c #1B0C04",
"-  c #0E110E",
";  c #13110E",
":  c #1A130D",
">  c #0D0E11",
",  c #110F13",
"<  c #0E1111",
"1  c #141413",
"2  c #1A1613",
"3  c #171A16",
"4  c #1C1915",
"5  c #151619",
"6  c #1A171A",
"7  c #15191A",
"8  c #1B1B1A",
"9  c #21140C",
"0  c #2B1B0F",
"q  c #25180D",
"w  c #221714",
"e  c #231B15",
"r  c #2B1C15",
"t  c #221D1A",
"y  c #291E1A",
"u  c #2F1513",
"i  c #341B14",
"p  c #371D18",
"a  c #2B140B",
"s  c #1F201D",
"d  c #292015",
"f  c #24211C",
"g  c #2B231C",
"h  c #29261B",
"j  c #342117",
"k  c #3B2215",
"l  c #32241C",
"z  c #3C241C",
"x  c #34291E",
"c  c #3D2A1E",
"v  c #1C1E20",
"b  c #242322",
"n  c #2B2522",
"m  c #2D2923",
"M  c #2D2C2B",
"N  c #362522",
"B  c #3B2621",
"V  c #342B24",
"C  c #3B2B24",
"Z  c #342D2A",
"A  c #3C2D29",
"S  c #3D3126",
"D  c #3C322B",
"F  c #323024",
"G  c #313130",
"H  c #393836",
"J  c #3C3C3C",
"K  c #421C13",
"L  c #45251B",
"P  c #452B1C",
"I  c #492B1E",
"U  c #492014",
"Y  c #522E1C",
"T  c #552619",
"R  c #432622",
"E  c #442B23",
"W  c #4A2C23",
"Q  c #482A27",
"!  c #532C22",
"~  c #5D2D22",
"^  c #453225",
"/  c #4D3326",
"(  c #43332A",
")  c #4B342A",
"_  c #4B3A2D",
"`  c #43382C",
"'  c #543124",
"]  c #5C3223",
"[  c #54342C",
"{  c #5B372C",
"}  c #533C2D",
"|  c #5C3A2D",
" . c #583D26",
".. c #4F3B31",
"X. c #423C3A",
"o. c #443530",
"O. c #543C34",
"+. c #633524",
"@. c #63352A",
"#. c #643C2C",
"$. c #68392A",
"%. c #723A29",
"&. c #633D33",
"*. c #6B3C31",
"=. c #623E39",
"-. c #773C37",
";. c #602D25",
":. c #5B402E",
">. c #48423A",
",. c #594537",
"<. c #6A402E",
"1. c #74422E",
"2. c #654333",
"3. c #6A4233",
"4. c #624C3F",
"5. c #6A4A3C",
"6. c #66463C",
"7. c #734434",
"8. c #7A4633",
"9. c #7D4935",
"0. c #734D3C",
"q. c #7C4B3B",
"w. c #73473A",
"e. c #7A503B",
"r. c #434342",
"t. c #4A4846",
"y. c #544C46",
"u. c #59524B",
"i. c #555553",
"p. c #5E5E5C",
"a. c #5C5854",
"s. c #694E45",
"d. c #644A45",
"f. c #774D42",
"g. c #6A5345",
"h. c #73544C",
"j. c #7B5349",
"k. c #675A55",
"l. c #7A5A52",
"z. c #5F605D",
"x. c #68625B",
"c. c #78665B",
"v. c #6B6B6A",
"b. c #686663",
"n. c #786E69",
"m. c #70706F",
"M. c #7F776F",
"N. c #6F7171",
"B. c #7D7C76",
"V. c #7C7C7C",
"C. c #737272",
"Z. c #834D3B",
"A. c #854B38",
"S. c #86513D",
"D. c #90513E",
"F. c #865245",
"G. c #885249",
"H. c #985957",
"J. c #924B4B",
"K. c #836964",
"L. c #87746A",
"P. c #857B75",
"I. c #9B877C",
"U. c #838383",
"Y. c #8B8B86",
"T. c #8B8B8B",
"R. c #8A8884",
"E. c #968C87",
"W. c #98938C",
"Q. c #939393",
"!. c #9A9A96",
"~. c #9D9D9C",
"^. c #9C9693",
"/. c #A09D9B",
"(. c #AB9E98",
"). c #B7A19B",
"_. c #A4A3A2",
"`. c #A9AAA6",
"'. c #ADACAA",
"]. c #A5ABAA",
"[. c #B2AEAB",
"{. c #B7B3AD",
"}. c #B5B5B4",
"|. c #BAB5B3",
" X c #BABBB6",
".X c #BEBEBC",
"XX c #B7B9B7",
"oX c #C1BDBB",
"OX c #C9BAB8",
"+X c #C3C2BE",
"@X c #C4C4C4",
"#X c #CBC7C4",
"$X c #CDCCCB",
"%X c #C8CAC9",
"&X c #D0CDCB",
"*X c #D8D3CE",
"=X c #D5D5D3",
"-X c #DBDCDA",
";X c #DAD5D3",
":X c #E2DEDC",
">X c #DFE0DA",
",X c #E2E2DE",
"<X c #F2E7DC",
"1X c #E5E4E3",
"2X c #EDECEB",
"3X c #E8E8E5",
"4X c #F1EEEB",
"5X c #F0ECE7",
"6X c #EFF3EE",
"7X c #F3F1EE",
"8X c #EEEFF0",
"9X c #EDF0F3",
"0X c #F4F5F4",
"qX c #FAF6F5",
"wX c #FAF9F6",
"eX c #FAF7FA",
"rX c #F7FAFB",
"tX c #FFFFFF",
/* pixels */
"tXtXtXtXtXtXtXtXtXtXtXtXtXtXtXtXtXtXtXtXtXtXtXtXtXtXtXtXrXwXtXtX1XXX=X-X6X6XrXwXwXtXrXtXtXtXtXtXtXtXtXtXtXtXtXtXtXtXtXtXtXtXtXtX",
"tXtXtXtXtXtXtXtXtXtXtXtXtXtXtXtXtXtXtXtXtXtXtXtXtXtXtXtXtXtX-XU.M 1 h r.z.z.].6XtXrXtXtXtXtXtXtXtXtXtXtXtXtXtXtXtXtXtXtXtXtXtXtX",
"tXtXtXtXtXtXtXtXtXtXtXtXtXtXtXtXtXtXtXtXtXtXtXtXtXtXrXeXtX~.6 @ 1 7 5 # O 1 > J }.tXqXtXtXeXtXtXtXtXtXtXtXtXtXtXtXtXtXtXtXtXtXtX",
"tXtXtXtXtXtXtXtXtXtXtXtXtXtXtXtXtXtXtXtXtXtXtXtXtXtXrXtXQ.@ 1 6 v g g V h V c : X R.tX6XrXtXtXtXtXtXtXtXtXtXtXtXtXtXtXtXtXtXtXtX",
"tXtXtXtXtXtXtXtXtXtXtXtXtXtXtXtXtXtXtXtXtXtXtXtXrXwXtX/.# v 1 e _ #.1.9.Z.9.9.6.x # b.L.u.:XtXrXtXtXtXtXtXtXtXtXtXtXtXtXtXtXtXtX",
"tXtXtXtXtXtXtXtXtXtXtXtXtXtXtXtXtXtXtXtXtXtXtXtXtXtXoX6 < 6 A 6.<.<.q.9.9.S.q.&.C g : c . ~.tXwXtXtXtXtXtXtXtXtXtXtXtXtXtXtXtXtX",
"tXtXtXtXtXtXtXtXtXtXtXtXtXtXtXtXtXtXtXtXtXtXeXtX[.P.>.+ 8 Q | 7.7.$.$.+.9.A.9.<.z l 2 ,   ^.tXqXtXtXtXtXtXtXtXtXtXtXtXtXtXtXtXtX",
"tXtXtXtXtXtXtXtXtXtXtXtXtXtXtXtXtXtXtXtXtXtXtX$Xu W O.y 2 B 2.*.! Y 7.9.1.9.A.q.) c l Z e X.+XtXtXrXtXtXtXtXtXtXtXtXtXtXtXtXtXtX",
"tXtXtXtXtXtXtXtXtXtXtXtXtXtXtXtXtXtXtXtXtXrXtX^.u ) r 8 > D 3.Y 5.j.@.T %.A.J.7.W C h C A e y b.;XwXeXtXtXtXtXtXtXtXtXtXtXtXtXtX",
"tXtXtXtXtXtXtXtXtXtXtXtXtXtXtXtXtXtXtXtXtXeXtX&X^ z r 2 2 :.I :.0.T $.A.A.A.-.%.{ C N ) V m x r D |.wXwXtXtXtXtXtXtXtXtXtXtXtXtX",
"tXtXtXtXtXtXtXtXtXtXtXtXtXtXtXtXtXtXtXtXtXwX[.a.c ^ E f : [ Y ,.E T G.*.! p z R Q W L g t 5 f Z d V oX4XtXtXtXtXtXtXtXtXtXtXtXtX",
"tXtXtXtXtXtXtXtXtXtXtXtXtXtXtXtXtXtXtX7X;XB.8 o l ,.} j % C | ^ r w.+.a $ . . . * i ) ) y # 3 e V ; t.3XtXtXtXtXtXtXtXtXtXtXtXtX",
"tXtXtXtXtXtXtXtXtXtXtXtXtXtXtXtXtXrXtX,XI.4 4 x e I 3.c X : [ k /  .0 % & & + . +   : ' O.t * e m r o ~.tXtXtXtXtXtXtXtXtXtXtXtX",
"tXtXtXtXtXtXtXtXtXtXtXtXtXtXtXtXtXtX$Xi.@ : : : 2 % f h % . g l k L w : n w Q i o O   * N y o ; n 4 & m ;XtXrXtXtXtXtXtXtXtXtXtX",
"tXtXtXtXtXtXtXtXtXtXtXtXtXtXtXtXtX_.s o - ; 2 s d 2 ; ; 1 @ - r P  .P P { | s.O.& O o o w * o # , t 5 o C.0XrXtXtXtXtXtXtXtXtXtX",
"tXtXtXtXtXtXtXtXtXtXtXtXtXtXtXtXY.@ 3 3 - 3 4 d d e h f ; # - * ^ e.e.S.8.Z.q.d.b     o 4 & @ X & b 2 & G @XeXtXtXtXtXtXtXtXtXtX",
"tXtXtXtXtXtXtXtXtXtXtXtXtXtXtXV.< 6 1 < ; ; : d x h h d f % # - y g.f.G.G.G.q.h.V   o O & , @ @ $ 8 t , o U.tXtXtXtXtXtXtXtXtXtX",
"tXtXtXtXtXtXtXtXtXtXtXrXrXtXR.< 3 3 1 1 2 3 ; 2 2 e 9 2 ( x @ # 5 s.j.-.*.-.8.5.V X X O O # # # O & t * > M =XtXrXtXtXtXtXtXtXtX",
"tXtXtXtXtXtXtXtXtXtXrXtXtXV.& 6 6 8 1 1 1 < - # > & % V _ _ e - 1 d.G.J.J.H.H.c.F X , @ O @ o > @ % Z 4 1 > p.8XeXtXtXtXtXtXtXtX",
"tXtXtXtXtXtXtXtXtXtXtX%Xt.O 1 4 f 3 ; > # - # # & ; e S ^ O.( m 4 h h.h.f.-.,.y.s - 2 1 o @ @ 1 & o V g 2 6 1 ~.tXtXtXtXtXtXtXtX",
"tXtXtXtXtXtXtXrXeXrX!.> @ 1 1 1 4 1 ; 1 # # # # & t x S c ) :.:.>.s d >.,.D H h 1 3 ; - + o @ 2 2 + : x e 3 1 M '.0XtXrXtXtXtXtX",
"tXtXtXtXtXtXtXtX0XT.1 1 1 1 1 ; 1 # # # # # @ # 8 N C P ( _ :.:.4.:.c F m X.e w : : - X   @   ; e 2 % x g 7 5 1 M }.rXtXtXtXtXtX",
"tXtXtXtXtXtXtX0XQ.8 5 1 1 # # - # - ; # @ O O + % g ( C P ( ) / :.2.^ F 2 2 r 0 : : % @ O o o & d : q Z m t 8 5 7 G !.,XwXtXtXtX",
"tXtXtXtXtXtXeX%XJ 1 1 & # @ @ @ @ - # # + o o @   + V S S ^ ^ ) / :.^ C 4 f d 2 : : ; # O o O o 2 t g n t t b 7 < O r.'.-XwXtXtX",
"tXtXtXtXrXtX-Xr.# 1 @ @ @ # # - # - # # # # + @ @ o & y l Z C C S } ) g e A g : ; 1 # + @ o + o 2 t 8 4 4 f b b 5 # H }.-X0XtXtX",
"tXtXrXtXtX$Xr.  # # # # > 1 1 1 7 7 3 6 5 5 4 , , 1 t y w e g g l ` ( e g C y 2 & ; @ @ @ + @ o ; 8 f t 4 6 v v v < b !.-X8XtXtX",
"eXtXeX7X'.b   1 < # 1 , & # , t 3 2 1 1 1 6 t 2 t Z A N N : - s f D V w g S 8 1 ; @ + @ o @ @ @ - 4 4 4 1 < 3 8 7 > < N.#X1XeXtX",
"tXwX7X[.n # 6 6 2 < 2 2 1 , t n 8 1 ; 1 2 2 , 4 N o.o.A x h % ; 4 N e 2 g g 6 # # # o @ X X @ @ & e 4 6 1 # < 1 1 7 < b..X:XtXtX",
"tXeX4Xu.2 b t 8 4 1 3 1 # 8 b t 6 ; 3 t 6 1 6 n N N ( ) N g d o & t ; 2 t 4 ; # # # @ + o O @ O # 2 e 4 1 # < 1 < v > i. X:XtXrX",
"eXtX_.m V t t f t 8 1 < ; 8 t t 2 3 s 8 ; 4 t t m V V Z V r s ; & ; ; & 2 2 < # # # # o O o + # # 2 e 1 1 - # 1 > v , r.@X&X3XtX",
"wX:XW.X.t t g n t 8 4 2 8 8 s 4 8 s 8 1 1 6 1 # 1 3 4 f n e 2 1 & o # 1 - ; # @ @ + + O . & n 2 @ 2 4 6 1 - # < < < 1 M _.:X2XtX",
"eX;X~.U.m t 4 6 3 1 1 1 8 8 8 8 3 8 3 - # < # # < 1 2 2 e e 4 ; & O # & @ # + @ + O o o o e 9 % o & 4 2 1 , 1 < > 1 1 b _.-X8XtX",
"qX*X+X[.4 : 2 3 8 8 3 3 3 4 4 3 ; X X - - o o # X ; t r y f : ; & @ + # @ o # @ O o     & e y 2 % & 2 2 1 1 # 1 # 1 6 v V.2XrXtX",
"qX1X:X'.u.V 2 ; 8 8 ; ; 2 # @ X b v.m.1 - ; t 4 X . t x y y r 2 & @ @ # + # + o O   O o & t g m 1 o 2 4 1 1 < # > # 8 v.v.1XtXtX",
"qX2X1X$X%XW.>.H 1 1 - 3 1 b t.v.XX0X`.X f f V t X   ; E i h y w ; t o O # @ @ # o o   o + e : g 6 & & , 1 # - - ; # b ~.`.$XtXtX",
"tXeX4X-X2X+X X`.B.B.Y.Y.Y.+X=X>XwXtXR.X h s f h ;   & S c r g y y g %   # + o @ @ O   O ; ; ; g 1 & @ , - - ; 8 b ; v.'..X=XtXtX",
"tXtXtX8X2X=X3X-X>X>X,X5X7XqX7XwX0XtXY.o b f h h 2 @ + Q [ z E N N p *   @ # O @ + o o @ - & 2 f 1 & # @ 1 < 1 M >.i.Q..X1X4XtXtX",
"tXtXtXtXrXwXtXtXrXtXtXtXtXtXtXwXrXtX!.@ f 4 h m f #   Q &.W W z i j w . # # @ O @ o   > 1 6 g f 1 1 O O N.N.6 m Y.`.`.-X0XrXtXtX",
"tXtXtXtXtXtXtXtXtXtXtXtXtXtXtXtXrXtX/.- s 4 g g t < @ 9 ! L E L i z y + + & + o @ @ # 4 8 t h 8 5 1   b %X@XN.i.^.+X$X7XwXtXtXtX",
"tXtXtXtXtXtXtXtXtXtXtXtXtXtXtXtXtXtX_.- f e f e 8 7 5 % E I p W p p 0 @ # + O o   O 3 8 2 f f 8 1 3 O M 3X-X@X}.{.=X1XtXrXtXtXtX",
"tXtXtXtXtXtXtXtXtXtXtXtXtXtXtXtXrXtXY.@ f f h f s 4 1 & N Q L ! i R = @ @ @ @ O o + 6 8 d f t 8 6 8 O r.eXrX0X3X-X0XrXtXtXtXtXtX",
"tXtXtXtXtXtXtXtXtXtXtXtXtXtXtXtXeXtXv.- f 8 h g 4 8 3 ; r u p [ u N : O @ o o O   # 8 3 V h f 8 7 7 @ H 0XtXtXtXrXrXtXtXtXtXtXtX",
"tXtXtXtXtXtXtXtXtXtXtXtXtXtXtXtXtXtXb.- f 8 g V f 6 7 ; & % l x w & o , # X o O X 1 4 8 m h f 6 8 6 # M 2XtXtXtXtXtXtXtXtXtXtXtX",
"tXtXtXtXtXtXtXtXtXtXtXtXtXtXtXtXtXtXV.- 8 4 h f n s s 3 # 1 2 o @ # > + @ X o @ @ 3 5 s h e 8 3 6 6   t.0XtXtXtXtXtXtXtXtXtXtXtX",
"tXtXtXtXtXtXtXtXtXtXtXtXtXtXtXtXrXtXQ.@ s 6 s f h b 8 5 # o   o + # @ O @ o o @ # 6 3 8 8 7 6 1 1 1 v _.tXtXtXtXtXtXtXtXtXtXtXtX",
"tXtXtXtXtXtXtXtXtXtXtXtXtXtXtXtXtXtX+X1 4 3 8 s f s s < > o @ @ + @ o O + O # # 1 8 1 6 6 5 5 # 1 o J =XrXtXtXtXtXtXtXtXtXtXtXtX",
"tXtXtXtXtXtXtXtXtXtXtXtXtXtXtXtXtXtX-Xs ; 8 s 8 d s 8 1 # # + o @ o O o o + # # 6 3 3 6 3 5 1 1 1   v.0XtXtXtXtXtXtXtXtXtXtXtXtX",
"tXtXtXtXtXtXtXtXtXtXtXtXtXtXtXtXtXtXqXr.X 8 8 8 s 8 8 < > # + @ o @ o @ @ + ; - 8 1 5 6 1 1 1 1 O s @XrXtXtXtXtXtXtXtXtXtXtXtXtX",
"tXtXtXtXtXtXtXtXtXtXtXtXtXtXtXtXtXrXtXV.  3 6 4 8 s 8 - # # # @ @ . o o @ # # < 7 1 8 8 1 1 1 1   v.tXrXtXtXtXtXtXtXtXtXtXtXtXtX",
"tXtXtXtXtXtXtXtXtXtXtXtXtXtXtXtXtXtXtX|.# 3 6 6 s s 8 2 # @ # # o % : o @ > # 2 3 6 8 8 5 1 5 # 6 @XtXeXtXtXtXtXtXtXtXtXtXtXtXtX",
"tXtXtXtXtXtXtXtXtXtXtXtXtXtXtXtXtXtXtX-Xv 1 8 5 6 b s 3 < o @ +   ; Z + o # o 4 1 8 4 6 5 1 1 O T.wXtXtXtXtXtXtXtXtXtXtXtXtXtXtX",
"tXtXtXtXtXtXtXtXtXtXtXtXtXtXtXtXtXtXtXeXr.# 8 6 8 f v 3 2 o # > # ; e o @ # : 2 t g 6 1 2 ,   p.2XrXtXtXtXtXtXtXtXtXtXtXtXtXtXtX",
"tXtXtXtXtXtXtXtXtXtXtXtXtXtXtXtXtXtXrXtXT.o 4 4 3 e Z f 3 # # 2 w : % + # # t w N e 2 1 1 # b -XtXrXtXtXtXtXtXtXtXtXtXtXtXtXtXtX",
"tXtXtXtXtXtXtXtXtXtXtXtXtXtXtXtXtXtXtXtX].; f 8 2 d ^ g 3 O   & * 9 : < # + 6 Z ^ d 1 < 1   U.tXtXtXtXtXtXtXtXtXtXtXtXtXtXtXtXtX",
"tXtXtXtXtXtXtXtXtXtXtXtXtXtXtXtXtXtXtXtX/.1 t : e C E Z 8 z.I.r.; .       e l N d f 8 - # 1 %XtXtXtXtXtXtXtXtXtXtXtXtXtXtXtXtXtX",
"tXtXtXtXtXtXtXtXtXtXtXtXtXtXtXtXtXtXtXtX|.M ; g V V y V 2 XXrXrX-X.X.X}.=XM.i j w 2 ; - @ H 1XtXtXtXtXtXtXtXtXtXtXtXtXtXtXtXtXtX",
"tXtXtXtXtXtXtXtXtXtXtXtXtXtXtXtXtXtXtXtX:Xk.w h h f ; : % /.tX0XtXtXtXtXtXL.K E w t * > @ X.@XtXwXtXtXtXtXtXtXtXtXtXtXtXtXtXtXtX",
"tXtXtXtXtXtXtXtXtXtXtXtXtXtXtXtXtXtXrXrX%XF 9 y 2 9 0 0 0 x.wXtX0XtXtX0XE.$.+.#.{ [ Q p y t x.qXtXtXrXtXtXtXtXtXtXtXtXtXtXtXtXtX",
"tXtXtXtXtXtXtXtXtXtXtXtXtXtXtXtXtXwXtXwXP.z [ ' I ' | 2.<.' s.+XeXB.k.d.! $.<.3.3.0.3.$.@.&.[ c.(.*XtXtXtXtXtXtXtXtXtXtXtXtXtXtX",
"tXtXtXtXtXtXtXtXtXtXtXtXtXtXtXtXrXwX<XI.:.| ] @.| 3.w.3.8.9.*.=.K.p z W K L ~ ~ T $.$.1.8.*.+.' ! [ (.tXrXtXtXtXtXtXtXtXtXtXtXtX",
"tXtXtXtXtXtXtXtXtXtXtXtXtXtXtXtXrXtXL.T +.| Y *.[ / K U +.~ ~ %.$.7.L y.^.y.Q d.l.2.s.P ! *.&.W #.@.W |.tXtXtXtXtXtXtXtXtXtXtXtX",
"tXtXtXtXtXtXtXtXtXtXtXtXtXtXtXrXtX5X4.+.] ~ ' 5.B d.L.E.L.E.I.K.g.[ j n.tXwX2X0XeX4XqX#XOX).,.c [ [ i >.qXtXtXtXtXtXtXtXtXtXtXtX",
"tXtXtXtXtXtXtXtXtXtXtXtXtXtXtXtXtXqXc.E } 6.s.[ oXwXtXtXtXtXtXeX5X|.{.2XeXeXtXtXtXtXtXtXrXtXE.(.:Xn.R.|.rXtXtXtXtXtXtXtXtXtXtXtX",
"tXtXtXtXtXtXtXtXtXtXtXtXtXtXwXtXeXtX*Xn.a.x.|.E.tXtXrXrXrXeXeXeXtXtXtXrXtXtXtXtXtXtXtXtXrXrXtXtXtXtXtXtXtXtXtXtXtXtXtXtXtXtXtXtX"
};
