/* XPM */
static char *result[] = {
/* columns rows colors chars-per-pixel */
"64 64 31 1 ",
"  c #325D2C",
". c #36612D",
"X c #3A652D",
"o c #3E692E",
"O c #3F6930",
"+ c #426C2F",
"@ c #436D30",
"# c #477031",
"$ c #4B7432",
"% c #4F7833",
"& c #537C34",
"* c #587F35",
"= c #578036",
"- c #5B8336",
"; c #5E8638",
": c #5F8838",
"> c #608737",
", c #618837",
"< c #608738",
"1 c #648B39",
"2 c #688F3A",
"3 c #6C933B",
"4 c #71973C",
"5 c #749A3E",
"6 c #799E3F",
"7 c #7BA03F",
"8 c #7A9F40",
"9 c #7DA240",
"0 c #81A642",
"q c #85A943",
"w c #88AC44",
/* pixels */
"&-%%XX1333531963wwq5,:161&$o 5q6752,1$+1w0-55131&-%&XX1335531763",
"297&XX195,3&9081777-1,&-11%XX;33554-&&&-5q9ww95&197&XX163:3&0081",
"673%@ X%&-1-9930w540q0-&%&ooO-q3,1&%11&31600q62-673%@..%&-1-9840",
"-22>%  .&-&@=*4q055ww53&---X O&$11X&--0633qq91---13-%  X&-&@**4q",
"&-*&&-2;@o+X@<465-196220w55#.XX--&@OX20956054676&-&&&-1;@o+X@136",
"-$%$199353$o++<321,43-30q63%..+#@@XX &4<5wq55wq7-%%$199352$o++<3",
"15q0543-53##%$o=6w614,7761&XX395=#@ XX21375=6q7114qq542-53$$%$o=",
"1,q0399531&5,>o.30q763213&@%&995:8:@#o@1571-16311>q0300541&31-oX",
"3&399qw95;308-&&-$@$%-11%$407341<8-#%%$+3146211-3&399qw95-308-%-",
"1883qqq5,:13%;90531#ooo%1-3067wq83&:33&o@-q0973-1883qqq51:13%;99",
"9081996<1,-65583-64%#$+.&&237qw073-094++@&1;--329081999;1,-68483",
"1630q659q9-w0168331&2--o 2916qq63--34<@1881&$oXX1630q649q7-w0168",
"o.4qq55wq3&309qwq5-2q0-XX1q2388311-%=--595:73$$oo.4qq45wq3&390qw",
"%X$55::991353qqq52-383&#oX;8qq36wq5%1q0133151%&%%X$55:1981353qqq",
"-XX11113369819091>-&111%X.@900;9q73-1906ww93&,95-XX1111337981909",
"#+ $6w6110959q8470q-*&&oO@<451=3931-1160qq63-995#+ $6w6110959q84",
"-%  80q8$,,4qq55qq52&==%X 1921213116633qw02--<31-$. 80q7$113qq53",
"-#%--%@$o%,376-2q7227q33@ %02w08113q054754254&---$&--%@$o%,376-2",
"+,00531$oo+552::53120q77&XO-10qq39-725qq44qq7&$$+190431@oo+552,,",
"5453-63$$$@X-4q313:6772-OX;53=#@+$O1;407>6q022184453-64%#$@o-595",
"0166331&2-=o.60q751135-@@$90615-++o$4561-173111wq188331&2-=o.69q",
"00qwq5;3q0-XX-w330761%+59033,-7-@$%$$7134-21-3&300qw08-20q-X.:w4",
"4q0q51;393&+X.19511,&,-3q850953--3,&X@-qq953-1453q0q81;373&@X.17",
"19091<-&,2,&X.-3-11o&,=139qqq94-776+XX-7q74639951009;<-&111%X.-3",
"9w847qq-=&-XO@X@,-&+@@3928qq731-45-$$ X-23351q947q557q0--&=Xo+X+",
"qq54qq61&&&&X X@163%+@@$#3904,,-&11-+X+<69,1$:14qq55qq61%==&X o+",
"76-1q7217q33OXX&90515&++o&835qq6%&%$XOX$$%&1&33376-1q7227q42+oX&",
"&--,63,3qq76&89933-19&#$$@%10q041--1%  Oo.=--&$==---64,30q77&677",
"oo+113,7773=&5q36q853&111$.+59313q03<o  .&697,:@oo+113>6983-%5q3",
"#$oo151135-+$149qw0911993+Xo:5,>3005<@ ;1365-37&@$oX,51136&@$149",
"-%&+.576,%+&5719qq92;-55-$$ +113905;$ o0w115133&-%=+.6961$O&8810",
"883o.$1,&,26q7;599111=&11=o.%353,31#oX&375wwq61-772+.$1,&-1809-8",
"95&@O.&@%<-9047q736qq3&&&@.o#3883-%&$+1337qw63>295*+o *O%<-99889",
"131*o #@@@@&-&wq0-qq03->-1$ O3-:&-31@405,0qq1-*%121*X $@@@@&;*w0",
"&-;@X@@$@Xo-,3361&79215q93=X.%3&o-*@%q084q74466-&*>$X@@%@XO-;338",
"&&&#o$598&&@XX@11-34>15095-o.1=%.ooo@151qq72qw02&%%$o%498&%#XX@1",
"403-&298;38&+#oX303115703-#X%363$@+X.&117q1-q031503-&196-46&#$XX",
"6w19q333133%&&&+#9055213-$&$397153$+++%653,-65127q10q325133&&&&+",
"66&593qw961&643+o&35763&$-qq353-53$&%$o-516312-566&593qq961&553+",
"36&2390q951406&+X+31--&-1<093ww95-&732XX&0q0q5>135=2390w7513q6&o",
"1398:qqq3--&32>&+ #*4$@-&-259qq931508&o.@6q7466613951qqq2:-&33:&",
"19q91988153-&-1$Xo@1-$O@1763qqq3-->42&%X -15533210q92766153-&-,$",
"$5q1qq830w01%#&+.Xo@%@.@qq71965:31&-11$Xo%553-3$%401qw730wq1%#&o",
"@;11003-q05335,-&-11@OOO$,30q639q0-%$&XXX$+#*;;@@;127q3-w041251-",
"-7q754,-76119q2%299333#o+o=7033qq43>2,:X .@X%&&#<9q853,-95117q2&",
"$1505-5,12-355qw532=63#$%#X13:19512qw67$X X#@@. #1406-3121-455qq",
"+oo=37q963;33:q929064,&51:XX-3;32-37062$. 47821&+Xo&29q764133100",
"$#@+o6006665;=399qw95;3q7-X.=q934>5671&$11464-63$$$+o6q06664-&29",
"&-&%XX1335531764wqq4<-161&$o 80664211$@1w0-45331&-&%XX1335531763",
"197&XX163:3=908177713,&-11%XX;33554-&&&;6q9wq75&197&XX163:3&0081",
"673$@..%&-1-0830q557q0-&&&XoO-03,1&%11&3350qq62-673$@..%&-1-0940",
"-13,%  X&-&+&*4qq55wq53&---X @&$11o&&-9833qq9,---13,%  X&-&@&&4q",
"&-&&&-1;@ooX@1455-17712qq55@XXX--&@+X10938055575&-&&&-1;@o+X@<46",
"-%%$199343$o++<321:53-37074%..+#@@.o.&415qq45wq7-%%$199352$o++<3",
"14qq541-63$$%$o-7w614,7761&.X395&$@ XX31498&6q7114qq542-53$$%#o=",
"1>q0300631&4;>o.30q763313&#%&99516;@@o@:661-16311>q0300531&31>oX",
"3&399qw05-3q8-%*-$@$%-11%$407341;6,$%%$+3148111-3&399qw05-308-%-",
"1883qqq31:,3$190531#ooo$1-3067wq63&-33&o@-w9993=1883qqq31113$199",
"908199611,-68583-64$#$+X&&2390w093;074++O&1--;33908199711,-68583",
"1630q659q9-w9158331&2--o 2826qq71;-34,@1681&$OX.1630q649q7-w9158",
"o.4qq55qq3&300qwq5-3qq-XX1q23763,1>%--=575-73$$+o.4qq45wq3&300qw",
"%X$55:1981533q0q52-382&#oX;8qq36wq5%1w0154151%&%%X$55:1981443q0q",
"-XX111:3299829091>-&111%X.@909-0q93-1906wq75-,65-XX111:329982909",
"$+ $6w7110959q8470q*-&&X@@<46,-3931-11500q63-794$+ $6w9110959q84"
};
